<svg xmlns="http://www.w3.org/2000/svg" id="Ebene_1" data-name="Ebene 1" viewBox="0 0 1031.12 183.81"><defs><style>.cls-1{fill:#323232;}</style></defs><title>Logo_korrektur_schwarz</title><polygon class="cls-1" points="352.62 4.85 317.99 97.65 283.13 4.85 238.34 4.85 208.79 178.92 253.82 178.92 268.82 78.73 307.83 178.92 325.84 178.92 366.93 78.73 381.94 178.92 426.95 178.92 397.4 4.85 352.62 4.85"/><polygon class="cls-1" points="539.96 52.41 507.64 4.85 453.62 4.85 517.1 95.36 517.1 178.92 562.34 178.92 562.34 95.36 626.07 4.85 572.04 4.85 539.96 52.41"/><path class="cls-1" d="M849.14,45.22a91.31,91.31,0,0,0-30.58-19.5,110.37,110.37,0,0,0-77.68,0,90,90,0,0,0-57.38,84.84,89.61,89.61,0,0,0,57.38,84.82,110.51,110.51,0,0,0,77.68,0,91.29,91.29,0,0,0,30.58-19.49,89.23,89.23,0,0,0,20-29.2,91.18,91.18,0,0,0,7.15-36.13,91.16,91.16,0,0,0-7.15-36.14A89.23,89.23,0,0,0,849.14,45.22ZM825,129.71A47.41,47.41,0,0,1,814.28,145,49.39,49.39,0,0,1,798.58,155,51.34,51.34,0,0,1,761,155a47.95,47.95,0,0,1-26.21-25.29,48.67,48.67,0,0,1,0-38.32A47.89,47.89,0,0,1,761,66.11a50.35,50.35,0,0,1,53.32,10A47.74,47.74,0,0,1,825,91.39a48.78,48.78,0,0,1,0,38.32Z" transform="translate(-27.37 -18.66)"/><path class="cls-1" d="M1015.78,91.43q-5.53-1.83-11.2-3.47a60.77,60.77,0,0,1-10.15-3.8,23.76,23.76,0,0,1-7.28-5.2,10.82,10.82,0,0,1-2.77-7.61,13,13,0,0,1,5.54-10.86q5.54-4.14,14.32-4.14a39.32,39.32,0,0,1,14.31,2.87,56.71,56.71,0,0,1,14.77,8.9l18-35.32a118.93,118.93,0,0,0-27-10.51,109.43,109.43,0,0,0-27-3.58,71.77,71.77,0,0,0-25,4.16,53.65,53.65,0,0,0-18.93,11.65,51.83,51.83,0,0,0-12,18A61.69,61.69,0,0,0,937.05,76q0,12.95,4,21.36a41.52,41.52,0,0,0,10.62,14,54,54,0,0,0,15,8.88c5.62,2.24,11.35,4.27,17.2,6.13q7.38,2.52,12.58,4.61a37.34,37.34,0,0,1,8.42,4.5,15,15,0,0,1,4.63,5.31,15.69,15.69,0,0,1,1.38,6.82q0,6.47-5.43,11.53T989,164.16a48.39,48.39,0,0,1-19.62-4.39,78.7,78.7,0,0,1-20.08-13.39L929.9,182.85q28.15,19.62,61.17,19.63a88.16,88.16,0,0,0,28.52-4.28,60.59,60.59,0,0,0,21.24-12A50.67,50.67,0,0,0,1054,167.62a62.74,62.74,0,0,0,4.5-24.25q0-19.83-10.28-32.2T1015.78,91.43Z" transform="translate(-27.37 -18.66)"/><path class="cls-1" d="M122.32,47.73s-44.45-60.25-64.15,12L28.58,168.3s-9.85,36.12,26.48,27.07l66.58-16.59s82.25-20.49,31.92-88.7Z" transform="translate(-27.37 -18.66)"/></svg>